<svg xmlns="http://www.w3.org/2000/svg" xmlns:xlink="http://www.w3.org/1999/xlink" version="1.1" width="512" enable-background="new 0 0 512 512" xml:space="preserve" height="512" style=""><rect id="backgroundrect" width="100%" height="100%" x="0" y="0" fill="none" stroke="none"/>




<g class="currentLayer" style=""><title>Layer 1</title><path fill="#000000" opacity="0.000000" stroke="none" d="M294.9640769958496,511.90162205696106 C196.3213619958496,511.90162205696106 98.17863799584961,511.90162205696106 -4.150390697787998e-9,511.90162205696106 C-4.150390697787998e-9,341.3005480569611 -4.150390697787998e-9,170.69945805696105 -4.150390697787998e-9,5.696105964680953e-8 C170.52347899584962,5.696105964680953e-8 341.08294299584963,5.696105964680953e-8 511.8032489958496,5.696105964680953e-8 C511.8032489958496,170.56817205696106 511.8032489958496,341.2348740569611 511.8032489958496,511.90162205696106 C439.7618979958496,511.90162205696106 367.6129719958496,511.90162205696106 294.9640769958496,511.90162205696106 M199.4464839958496,16.901555056961058 C192.37023499584961,17.99245805696106 185.18693199584962,18.62753005696106 178.23775899584962,20.25952605696106 C157.18744999584962,25.203151056961058 137.2321589958496,33.04072505696106 118.52556999584961,43.97179705696106 C98.07024799584961,55.92473905696106 80.58684199584961,71.29315505696106 65.06245799584961,89.15677905696106 C50.49788699584961,105.91595805696106 39.55558399584961,124.73069305696106 30.92949299584961,145.05089905696107 C22.68288999584961,164.47716805696106 17.48571999584961,184.82857805696105 16.26995899584961,205.73147105696106 C15.210729995849608,223.94301905696105 15.143599995849609,242.29453605696105 18.74934799584961,260.5487470569611 C22.22347799584961,278.13663805696103 27.137477995849608,295.08329305696105 34.737906995849606,311.28278705696107 C42.77469599584961,328.4123340569611 52.58576599584961,344.3387560569611 65.0861239958496,358.67286205696104 C77.46686899584961,372.8698230569611 91.05207399584961,385.59400505696107 106.63525799584961,396.18552705696106 C126.3576469958496,409.59034305696105 147.72805399584962,419.32795305696106 170.8158679958496,425.32871605696107 C187.4951899958496,429.6638600569611 204.3443569958496,432.49613505696107 222.1637229958496,431.80915405696106 C216.0153469958496,411.6023970569611 209.8771629958496,391.75974605696103 203.9972649958496,371.8408000569611 C202.7403679958496,367.58289605696103 201.7350729958496,363.8901780569611 196.1250419958496,364.44025705696106 C194.5723079958496,364.59250905696103 192.9124569958496,364.0218610569611 191.3462489958496,363.6125290569611 C159.5154689958496,355.29386405696107 132.56553299584962,339.04810605696105 111.96905099584961,313.24616505696105 C94.62656799584961,291.52061005696106 83.82999799584961,266.58982405696105 81.23241799584962,238.88608905696105 C79.79310199584961,223.53539605696105 80.3236959958496,207.92678405696105 83.9153019958496,192.62144005696106 C89.55203599584961,168.60091705696107 100.5120119958496,147.27547805696105 116.69464499584961,128.85259605696106 C130.40809299584961,113.24074905696106 147.08274499584962,101.43239905696106 166.1371729958496,92.77260105696107 C192.0299799958496,81.00491605696106 219.0857659958496,78.26524705696106 246.76299699584962,82.15102705696106 C262.9200399958496,84.41941405696106 278.2529869958496,90.18255205696106 292.70528799584963,98.13260205696106 C309.76409499584963,107.51646005696107 324.5523339958496,119.68136105696107 336.3302269958496,134.99808805696105 C352.4826319958496,156.00370305696106 363.5046649958496,179.44037905696106 366.0473289958496,206.28997305696106 C366.2575949958496,208.51050905696107 366.9160729958496,210.51307205696105 369.9250759958496,211.50416105696107 C381.87285999584964,215.43938805696106 393.6617089958496,219.85685305696106 405.5121729958496,224.08797805696105 C414.1352199958496,227.16678905696105 422.7625999958496,230.23357705696105 430.9374659958496,233.14524405696105 C430.9374659958496,220.56148805696105 432.0337179958496,208.36793105696105 430.6744959958496,196.45452405696105 C428.7493549958496,179.58138605696107 424.4266319958496,163.07027705696106 417.9535789958496,147.24172505696106 C408.2643999958496,123.54874705696106 395.4163169958496,101.77663005696105 377.64312399584963,83.25130805696107 C369.65197399584963,74.92197005696106 361.0429039958496,67.10660905696106 352.1520039958496,59.73620905696106 C335.1418109958496,45.63500105696106 315.7885399958496,35.48344305696106 295.0933799958496,27.89831705696106 C279.0369529958496,22.013370056961058 262.5870929958496,17.49652405696106 245.40674999584962,16.97503005696106 C230.40555999584961,16.51968105696106 215.3792079958496,16.893350056961058 199.4464839958496,16.901555056961058 M325.9696309958496,472.49372405696107 C330.3008999958496,458.13309805696105 334.6715349958496,443.78419005696105 338.9539759958496,429.40903805696104 C344.9863549958496,409.15967905696107 350.9773219958496,388.8978990569611 356.9136309958496,368.62021905696105 C357.5520899958496,366.43934205696104 358.2418169958496,365.28773005696104 360.90050899584963,364.72135505696104 C371.01461399584963,362.56687505696107 381.0116539958496,359.86246805696106 391.0515399958496,357.35993505696104 C417.0710409958496,350.87424805696105 443.08517099584964,344.3666490569611 469.1122699958496,337.91157105696107 C477.1861839958496,335.90916005696107 485.0791889958496,333.8813280569611 491.1112329958496,327.3470870569611 C502.5841639958496,314.91889505696105 500.2040059958496,290.75724305696104 482.3451189958496,284.06156505696106 C473.88170999584963,280.88840805696105 465.3272669958496,277.95792705696107 456.8124049958496,274.9221910569611 C431.5805629958496,265.9264940569611 406.3620869958496,256.89286305696106 381.1120869958496,247.94843605696107 C344.75112499584964,235.06806505696105 308.3688619958496,222.24776805696106 271.9917559958496,209.41314205696105 C258.5929529958496,204.68574105696106 244.9609029958496,200.53216105696106 231.8302879958496,195.15259905696107 C212.47913699584961,187.22451305696106 191.1613579958496,201.08904605696105 192.13515899584962,221.17386905696105 C192.4673119958496,228.02477605696106 194.2776449958496,234.93210905696105 196.2771419958496,241.55253105696107 C206.3502309958496,274.90479605696106 216.76050899584962,308.15507005696105 226.95286199584962,341.4715680569611 C237.01304199584962,374.35605905696104 246.9348409958496,407.2828480569611 256.9567529958496,440.1790570569611 C261.2344929958496,454.2204390569611 266.0324359958496,468.11954805696104 269.8055379958496,482.29319305696106 C272.6016199958496,492.79670305696106 278.7121239958496,499.65269005696103 288.9449729958496,502.2049970569611 C298.4666709958496,504.57996705696104 307.2427939958496,502.4419360569611 314.8512839958496,495.63318905696104 C321.6135829958496,489.58167605696104 323.5441549958496,481.3969530569611 325.9696309958496,472.49372405696107 M176.4384269958496,326.0016890569611 C181.0574459958496,327.74647105696107 185.6764489958496,329.49125205696106 191.0955159958496,331.53824905696104 C190.75809899584962,329.51658205696106 190.7128719958496,328.73038805696103 190.4921069958496,327.9970500569611 C181.6208609958496,298.5307110569611 172.8352619958496,269.0380050569611 163.80906299584962,239.61913605696105 C158.70925499584962,222.99743205696106 160.3931389958496,207.35015405696106 168.7624319958496,192.10421305696107 C174.9579579958496,180.81814105696105 184.1404989958496,172.78336605696106 195.3794819958496,167.38489805696105 C205.8729519958496,162.34452405696106 217.29999899584962,159.72700005696106 228.9278529958496,162.91544605696106 C240.5919299958496,166.11381105696105 252.0824699958496,169.99747805696106 263.5230369958496,173.94594905696107 C279.3124959958496,179.39535105696106 294.9655419958496,185.23870405696107 310.7139239958496,190.80909305696105 C317.87621699584963,193.34246405696106 325.1268879958496,195.62591105696106 332.7123989958496,198.14735005696107 C332.7730369958496,196.79784705696105 332.9702719958496,196.11800705696106 332.8056909958496,195.54143805696106 C323.4273949958496,162.69013505696105 304.0137599958496,137.85805805696106 273.2242999958496,122.69215705696107 C250.6549029958496,111.57520605696106 226.7089349958496,109.02157105696106 202.0254629958496,113.81373105696106 C167.1506459958496,120.58450605696106 141.4667779958496,140.16942905696106 124.55376099584961,170.99872905696105 C112.6087909958496,192.77219705696106 109.54795499584961,216.41495805696107 112.94523199584961,240.93741905696106 C116.43561199584961,266.13190805696104 127.5596429958496,287.69587205696104 145.9347189958496,304.89735005696105 C154.6962549958496,313.0993150569611 165.71398499584961,318.89118505696104 176.4384269958496,326.0016890569611 z" id="svg_1" class=""/><path fill="#7BD0E6" opacity="1.000000" stroke="none" d="M199.9052239958496,16.90115305696106 C215.3792079958496,16.893350056961058 230.40555999584961,16.51968105696106 245.40674999584962,16.97503005696106 C262.5870929958496,17.49652405696106 279.0369529958496,22.013370056961058 295.0933799958496,27.89831705696106 C315.7885399958496,35.48344305696106 335.1418109958496,45.63500105696106 352.1520039958496,59.73620905696106 C361.0429039958496,67.10660905696106 369.65197399584963,74.92197005696106 377.64312399584963,83.25130805696107 C395.4163169958496,101.77663005696105 408.2643999958496,123.54874705696106 417.9535789958496,147.24172505696106 C424.4266319958496,163.07027705696106 428.7493549958496,179.58138605696107 430.6744959958496,196.45452405696105 C432.0337179958496,208.36793105696105 430.9374659958496,220.56148805696105 430.9374659958496,233.14524405696105 C422.7625999958496,230.23357705696105 414.1352199958496,227.16678905696105 405.5121729958496,224.08797805696105 C393.6617089958496,219.85685305696106 381.87285999584964,215.43938805696106 369.9250759958496,211.50416105696107 C366.9160729958496,210.51307205696105 366.2575949958496,208.51050905696107 366.0473289958496,206.28997305696106 C363.5046649958496,179.44037905696106 352.4826319958496,156.00370305696106 336.3302269958496,134.99808805696105 C324.5523339958496,119.68136105696107 309.76409499584963,107.51646005696107 292.70528799584963,98.13260205696106 C278.2529869958496,90.18255205696106 262.9200399958496,84.41941405696106 246.76299699584962,82.15102705696106 C219.0857659958496,78.26524705696106 192.0299799958496,81.00491605696106 166.1371729958496,92.77260105696107 C147.08274499584962,101.43239905696106 130.40809299584961,113.24074905696106 116.69464499584961,128.85259605696106 C100.5120119958496,147.27547805696105 89.55203599584961,168.60091705696107 83.9153019958496,192.62144005696106 C80.3236959958496,207.92678405696105 79.79310199584961,223.53539605696105 81.23241799584962,238.88608905696105 C83.82999799584961,266.58982405696105 94.62656799584961,291.52061005696106 111.96905099584961,313.24616505696105 C132.56553299584962,339.04810605696105 159.5154689958496,355.29386405696107 191.3462489958496,363.6125290569611 C192.9124569958496,364.0218610569611 194.5723079958496,364.59250905696103 196.1250419958496,364.44025705696106 C201.7350729958496,363.8901780569611 202.7403679958496,367.58289605696103 203.9972649958496,371.8408000569611 C209.8771629958496,391.75974605696103 216.0153469958496,411.6023970569611 222.1637229958496,431.80915405696106 C204.3443569958496,432.49613505696107 187.4951899958496,429.6638600569611 170.8158679958496,425.32871605696107 C147.72805399584962,419.32795305696106 126.3576469958496,409.59034305696105 106.63525799584961,396.18552705696106 C91.05207399584961,385.59400505696107 77.46686899584961,372.8698230569611 65.0861239958496,358.67286205696104 C52.58576599584961,344.3387560569611 42.77469599584961,328.4123340569611 34.737906995849606,311.28278705696107 C27.137477995849608,295.08329305696105 22.22347799584961,278.13663805696103 18.74934799584961,260.5487470569611 C15.143599995849609,242.29453605696105 15.210729995849608,223.94301905696105 16.26995899584961,205.73147105696106 C17.48571999584961,184.82857805696105 22.68288999584961,164.47716805696106 30.92949299584961,145.05089905696107 C39.55558399584961,124.73069305696106 50.49788699584961,105.91595805696106 65.06245799584961,89.15677905696106 C80.58684199584961,71.29315505696106 98.07024799584961,55.92473905696106 118.52556999584961,43.97179705696106 C137.2321589958496,33.04072505696106 157.18744999584962,25.203151056961058 178.23775899584962,20.25952605696106 C185.18693199584962,18.62753005696106 192.37023499584961,17.99245805696106 199.9052239958496,16.90115305696106 z" id="svg_2" class=""/><path fill="#7BD0E6" opacity="1.000000" stroke="none" d="M325.96438199584964,472.9101670569611 C323.5441549958496,481.3969530569611 321.6135829958496,489.58167605696104 314.8512839958496,495.63318905696104 C307.2427939958496,502.4419360569611 298.4666709958496,504.57996705696104 288.9449729958496,502.2049970569611 C278.7121239958496,499.65269005696103 272.6016199958496,492.79670305696106 269.8055379958496,482.29319305696106 C266.0324359958496,468.11954805696104 261.2344929958496,454.2204390569611 256.9567529958496,440.1790570569611 C246.9348409958496,407.2828480569611 237.01304199584962,374.35605905696104 226.95286199584962,341.4715680569611 C216.76050899584962,308.15507005696105 206.3502309958496,274.90479605696106 196.2771419958496,241.55253105696107 C194.2776449958496,234.93210905696105 192.4673119958496,228.02477605696106 192.13515899584962,221.17386905696105 C191.1613579958496,201.08904605696105 212.47913699584961,187.22451305696106 231.8302879958496,195.15259905696107 C244.9609029958496,200.53216105696106 258.5929529958496,204.68574105696106 271.9917559958496,209.41314205696105 C308.3688619958496,222.24776805696106 344.75112499584964,235.06806505696105 381.1120869958496,247.94843605696107 C406.3620869958496,256.89286305696106 431.5805629958496,265.9264940569611 456.8124049958496,274.9221910569611 C465.3272669958496,277.95792705696107 473.88170999584963,280.88840805696105 482.3451189958496,284.06156505696106 C500.2040059958496,290.75724305696104 502.5841639958496,314.91889505696105 491.1112329958496,327.3470870569611 C485.0791889958496,333.8813280569611 477.1861839958496,335.90916005696107 469.1122699958496,337.91157105696107 C443.08517099584964,344.3666490569611 417.0710409958496,350.87424805696105 391.0515399958496,357.35993505696104 C381.0116539958496,359.86246805696106 371.01461399584963,362.56687505696107 360.90050899584963,364.72135505696104 C358.2418169958496,365.28773005696104 357.5520899958496,366.43934205696104 356.9136309958496,368.62021905696105 C350.9773219958496,388.8978990569611 344.9863549958496,409.15967905696107 338.9539759958496,429.40903805696104 C334.6715349958496,443.78419005696105 330.3008999958496,458.13309805696105 325.96438199584964,472.9101670569611 z" id="svg_3" class=""/><path fill="#017EA7" opacity="1.000000" stroke="none" d="M176.0740929958496,325.8881940569611 C165.71398499584961,318.89118505696104 154.6962549958496,313.0993150569611 145.9347189958496,304.89735005696105 C127.5596429958496,287.69587205696104 116.43561199584961,266.13190805696104 112.94523199584961,240.93741905696106 C109.54795499584961,216.41495805696107 112.6087909958496,192.77219705696106 124.55376099584961,170.99872905696105 C141.4667779958496,140.16942905696106 167.1506459958496,120.58450605696106 202.0254629958496,113.81373105696106 C226.7089349958496,109.02157105696106 250.6549029958496,111.57520605696106 273.2242999958496,122.69215705696107 C304.0137599958496,137.85805805696106 323.4273949958496,162.69013505696105 332.8056909958496,195.54143805696106 C332.9702719958496,196.11800705696106 332.7730369958496,196.79784705696105 332.7123989958496,198.14735005696107 C325.1268879958496,195.62591105696106 317.87621699584963,193.34246405696106 310.7139239958496,190.80909305696105 C294.9655419958496,185.23870405696107 279.3124959958496,179.39535105696106 263.5230369958496,173.94594905696107 C252.0824699958496,169.99747805696106 240.5919299958496,166.11381105696105 228.9278529958496,162.91544605696106 C217.29999899584962,159.72700005696106 205.8729519958496,162.34452405696106 195.3794819958496,167.38489805696105 C184.1404989958496,172.78336605696106 174.9579579958496,180.81814105696105 168.7624319958496,192.10421305696107 C160.3931389958496,207.35015405696106 158.70925499584962,222.99743205696106 163.80906299584962,239.61913605696105 C172.8352619958496,269.0380050569611 181.6208609958496,298.5307110569611 190.4921069958496,327.9970500569611 C190.7128719958496,328.73038805696103 190.75809899584962,329.51658205696106 191.0955159958496,331.53824905696104 C185.6764489958496,329.49125205696106 181.0574459958496,327.74647105696107 176.0740929958496,325.8881940569611 z" id="svg_4" class=""/></g></svg>